<?xml version="1.0" encoding="UTF-8" standalone="no"?>
<!DOCTYPE svg PUBLIC "-//W3C//DTD SVG 1.1//EN"
 "http://www.w3.org/Graphics/SVG/1.1/DTD/svg11.dtd">
<!-- Generated by graphviz version 12.2.0 (20241103.1931)
 -->
<!-- Title: G Pages: 1 -->
<svg width="177pt" height="206pt"
 viewBox="0.00 0.00 177.00 206.00" xmlns="http://www.w3.org/2000/svg" xmlns:xlink="http://www.w3.org/1999/xlink">
<g id="graph0" class="graph" transform="scale(1 1) rotate(0) translate(4 202)">
<title>G</title>
<polygon fill="white" stroke="none" points="-4,4 -4,-202 173,-202 173,4 -4,4"/>
<!-- aws_instance.app_server -->
<g id="node1" class="node">
<title>aws_instance.app_server</title>
<polygon fill="none" stroke="black" points="169,-36 0,-36 0,0 169,0 169,-36"/>
<text text-anchor="middle" x="84.5" y="-12.2" font-family="sans-serif" font-size="14.00">aws_instance.app_server</text>
</g>
<!-- aws_subnet.subnet01 -->
<g id="node2" class="node">
<title>aws_subnet.subnet01</title>
<polygon fill="none" stroke="black" points="158.12,-90 10.88,-90 10.88,-54 158.12,-54 158.12,-90"/>
<text text-anchor="middle" x="84.5" y="-66.2" font-family="sans-serif" font-size="14.00">aws_subnet.subnet01</text>
</g>
<!-- aws_subnet.subnet02 -->
<g id="node3" class="node">
<title>aws_subnet.subnet02</title>
<polygon fill="none" stroke="black" points="158.12,-144 10.88,-144 10.88,-108 158.12,-108 158.12,-144"/>
<text text-anchor="middle" x="84.5" y="-120.2" font-family="sans-serif" font-size="14.00">aws_subnet.subnet02</text>
</g>
<!-- aws_vpc.vpc01 -->
<g id="node4" class="node">
<title>aws_vpc.vpc01</title>
<polygon fill="none" stroke="black" points="138.62,-198 30.38,-198 30.38,-162 138.62,-162 138.62,-198"/>
<text text-anchor="middle" x="84.5" y="-174.2" font-family="sans-serif" font-size="14.00">aws_vpc.vpc01</text>
</g>
</g>
</svg>
